
<svg xmlns="http://www.w3.org/2000/svg" version="1.1" id="Capa_1" x="0px" y="0px" viewBox="0 0 512 512" style="enable-background:new 0 0 512 512;" xml:space="preserve" width="512px" height="512px">
<g>
	<g>
		<path d="M511.082,126.35c-1.795-4.353-7.291-17.57-84.166,1.553c-2.14,0.534-3.443,2.701-2.912,4.844s2.686,3.427,4.84,2.916    c69.405-17.269,74.659-6.706,74.854-6.253c0.195,0.48,4.098,12.151-61.34,50.897c-44.437,26.31-105.877,56.117-173.009,83.929    c-67.117,27.809-131.641,50.183-181.683,63.002C14,346.099,8.504,335.084,8.301,334.615c-0.196-0.475-4.114-12.224,61.878-51.212    c1.897-1.124,2.53-3.577,1.405-5.473c-1.117-1.905-3.56-2.529-5.473-1.413C-6.61,319.487-0.943,333.18,0.915,337.676    c1.101,2.654,3.537,8.533,22.289,8.533c12.858,0,33.398-2.764,66.444-11.227c50.402-12.912,115.309-35.412,182.762-63.361    c67.467-27.953,129.274-57.939,174.024-84.436C518.593,144.462,512.94,130.831,511.082,126.35z" fill="#FFFFFF"/>
	</g>
</g>
<g>
	<g>
		<path d="M308.203,319.954h-0.078c-2.209,0-3.957,1.788-3.957,3.997c0,2.21,1.834,3.997,4.035,3.997    c2.21,0,3.998-1.787,3.998-3.997C312.201,321.742,310.413,319.954,308.203,319.954z" fill="#FFFFFF"/>
	</g>
</g>
<g>
	<g>
		<path d="M180.295,168.062h-0.078c-2.209,0-3.958,1.788-3.958,3.997c0,2.21,1.835,3.998,4.036,3.998    c2.209,0,3.997-1.787,3.997-3.998C184.292,169.85,182.504,168.062,180.295,168.062z" fill="#FFFFFF"/>
	</g>
</g>
<g>
	<g>
		<path d="M364.164,192.046h-0.078c-2.21,0-3.959,1.788-3.959,3.997c0,2.209,1.835,3.997,4.037,3.997    c2.209,0,3.997-1.788,3.997-3.997C368.161,193.834,366.373,192.046,364.164,192.046z" fill="#FFFFFF"/>
	</g>
</g>
<g>
	<g>
		<path d="M256.007,56.142c-96.978,0-175.875,78.897-175.875,175.875c0,59.676,29.838,114.551,79.943,147.231v8.658    c0,2.209,1.788,3.996,3.997,3.996h183.869c2.209,0,3.997-1.787,3.997-3.996v-8.658c50.097-32.68,79.943-87.555,79.943-147.231    C431.881,135.038,352.985,56.142,256.007,56.142z M345.794,373.697c-1.156,0.734-1.851,2.006-1.851,3.373v6.838H168.069v-6.838    c0-1.367-0.702-2.639-1.858-3.373c-48.894-31.056-78.084-84.026-78.084-141.68c0-92.57,75.305-167.88,167.88-167.88    c92.567,0,167.88,75.309,167.88,167.88C423.887,289.671,394.689,342.64,345.794,373.697z" fill="#FFFFFF"/>
	</g>
</g>
<g>
	<g>
		<path d="M347.941,383.909H164.072c-2.209,0-3.997,1.788-3.997,3.998v79.942c0,1.061,0.421,2.077,1.171,2.826l23.975,23.983    c0.75,0.749,1.764,1.171,2.826,1.171h135.911c1.062,0,2.077-0.422,2.826-1.171l23.983-23.983c0.749-0.749,1.17-1.764,1.17-2.826    v-79.942C351.937,385.697,350.15,383.909,347.941,383.909z M343.944,466.193l-21.641,21.641H189.702l-21.633-21.641v-74.291    h175.875V466.193z" fill="#FFFFFF"/>
	</g>
</g>
<g>
	<g>
		<path d="M355.615,399.913l-199.857,15.988c-2.202,0.172-3.841,2.101-3.669,4.302c0.171,2.092,1.919,3.677,3.981,3.677    c0.11,0,0.219-0.008,0.328-0.016l199.858-15.988c2.193-0.172,3.84-2.101,3.661-4.302    C359.737,401.381,357.863,399.765,355.615,399.913z" fill="#FFFFFF"/>
	</g>
</g>
<g>
	<g>
		<path d="M355.615,423.895l-199.857,15.989c-2.202,0.172-3.841,2.1-3.669,4.301c0.171,2.093,1.919,3.678,3.981,3.678    c0.11,0,0.219-0.008,0.328-0.016l199.858-15.988c2.193-0.172,3.84-2.101,3.661-4.303    C359.737,425.355,357.863,423.715,355.615,423.895z" fill="#FFFFFF"/>
	</g>
</g>
<g>
	<g>
		<path d="M355.615,447.879l-199.857,15.988c-2.202,0.172-3.841,2.1-3.669,4.302c0.171,2.092,1.919,3.677,3.981,3.677    c0.11,0,0.219-0.008,0.328-0.016l199.858-15.988c2.193-0.172,3.84-2.1,3.661-4.302    C359.737,449.339,357.863,447.754,355.615,447.879z" fill="#FFFFFF"/>
	</g>
</g>
<g>
	<g>
		<path d="M302.388,488.661c-1.742-1.327-4.255-0.992-5.598,0.749c-0.453,0.586-11.469,14.412-40.783,14.412    c-29.285,0-40.308-13.787-40.792-14.412c-1.319-1.741-3.818-2.099-5.574-0.78c-1.772,1.327-2.131,3.833-0.804,5.598    c0.539,0.718,13.576,17.589,47.17,17.589c33.585,0,46.622-16.871,47.161-17.59C304.488,492.471,304.137,489.988,302.388,488.661z" fill="#FFFFFF"/>
	</g>
</g>
<g>
	<g>
		<path d="M256.007,0.183c-2.21,0-3.998,1.788-3.998,3.997v55.96c0,2.209,1.788,3.997,3.998,3.997c2.209,0,3.997-1.788,3.997-3.997    V4.18C260.004,1.971,258.216,0.183,256.007,0.183z" fill="#FFFFFF"/>
	</g>
</g>
<g>
	<g>
		<path d="M291.98,8.177h-35.974c-2.21,0-3.998,1.788-3.998,3.997s1.788,3.997,3.998,3.997h35.974c2.21,0,3.999-1.788,3.998-3.997    C295.978,9.965,294.19,8.177,291.98,8.177z" fill="#FFFFFF"/>
	</g>
</g>
<g>
	<g>
		<path d="M291.98,24.166h-35.974c-2.21,0-3.998,1.788-3.998,3.997c0,2.209,1.788,3.997,3.998,3.997h35.974    c2.21,0,3.998-1.788,3.998-3.997C295.978,25.954,294.19,24.166,291.98,24.166z" fill="#FFFFFF"/>
	</g>
</g>
<g>
	<g>
		<path d="M291.98,8.177c-2.209,0-3.997,1.788-3.997,3.997v15.989c0,2.209,1.788,3.997,3.997,3.997c2.21,0,3.999-1.788,3.998-3.997    V12.174C295.978,9.965,294.19,8.177,291.98,8.177z" fill="#FFFFFF"/>
	</g>
</g>
<g>
	<g>
		<path d="M294.806,25.336c-1.56-1.561-4.09-1.561-5.652,0l-15.988,15.989c-1.562,1.561-1.562,4.09,0,5.652    c0.781,0.78,1.804,1.171,2.826,1.171c1.023,0,2.045-0.39,2.826-1.171l15.988-15.989C296.368,29.427,296.368,26.898,294.806,25.336    z" fill="#FFFFFF"/>
	</g>
</g>
<g>
	<g>
		<path d="M331.952,40.154h-55.96c-2.209,0-3.997,1.788-3.997,3.997s1.788,3.997,3.997,3.997h55.96c2.21,0,3.997-1.788,3.997-3.997    S334.162,40.154,331.952,40.154z" fill="#FFFFFF"/>
	</g>
</g>
<g>
	<g>
		<path d="M331.952,24.166H291.98c-2.209,0-3.997,1.788-3.997,3.997c0,2.209,1.788,3.997,3.997,3.997h39.972    c2.21,0,3.997-1.788,3.997-3.997C335.949,25.954,334.162,24.166,331.952,24.166z" fill="#FFFFFF"/>
	</g>
</g>
<g>
	<g>
		<path d="M329.61,36.155l5.168-5.168c1.562-1.561,1.562-4.09,0-5.652c-1.561-1.561-4.09-1.561-5.652,0l-7.994,7.995    c-1.562,1.561-1.562,4.091,0,5.652l7.994,7.995c0.781,0.78,1.804,1.171,2.826,1.171c1.023,0,2.046-0.39,2.826-1.173    c1.562-1.561,1.562-4.09,0-5.652L329.61,36.155z" fill="#FFFFFF"/>
	</g>
</g>
<g>
	<g>
		<path d="M256.006,88.12c-79.349,0-143.897,64.551-143.897,143.897c0,2.209,1.788,3.997,3.997,3.997s3.998-1.787,3.997-3.997    c0-74.939,60.964-135.903,135.903-135.903c2.209,0,3.997-1.788,3.997-3.997C260.003,89.907,258.215,88.12,256.006,88.12z" fill="#FFFFFF"/>
	</g>
</g>
<g>
	<g>
		<path d="M256.007,152.074c-22.039,0-39.972,16.137-39.972,35.974c0,19.837,17.933,35.974,39.972,35.974    c22.038,0,39.972-16.137,39.972-35.974C295.979,168.211,278.045,152.074,256.007,152.074z M256.007,216.028    c-17.637,0-31.978-12.554-31.978-27.98c0-15.426,14.342-27.98,31.978-27.98c17.628,0,31.977,12.554,31.977,27.98    C287.984,203.474,273.635,216.028,256.007,216.028z" fill="#FFFFFF"/>
	</g>
</g>
<g>
	<g>
		<path d="M348.051,116.576c-10.884-10.891-25.014-14.88-31.26-8.631c-6.441,6.448-2.717,19.881,8.65,31.239    c7.269,7.276,16.035,11.797,22.874,11.797c3.405,0,6.292-1.093,8.362-3.166C363.117,141.367,359.409,127.935,348.051,116.576z     M351.024,142.166c-0.679,0.68-1.851,0.82-2.709,0.82c-3.872,0-10.696-2.923-17.222-9.454c-8.595-8.583-10.89-17.686-8.65-19.935    c0.68-0.679,1.851-0.819,2.709-0.819c3.88,0,10.711,2.924,17.246,9.45C350.977,130.811,353.273,139.914,351.024,142.166z" fill="#FFFFFF"/>
	</g>
</g>
<g>
	<g>
		<path d="M372.782,283.481c-5.293-5.293-15.683-3.966-22.444,2.803c-7.065,7.081-8.291,16.941-2.787,22.445    c2.201,2.201,5.293,3.411,8.713,3.411c4.777,0,9.781-2.257,13.747-6.206C377.06,298.852,378.286,288.985,372.782,283.481z     M364.352,300.281c-2.429,2.42-5.449,3.864-8.088,3.864c-0.915,0-2.179-0.187-3.061-1.069c-1.976-1.976-1.312-7.035,2.795-11.141    c2.42-2.42,5.442-3.873,8.088-3.873c0.905,0,2.162,0.188,3.045,1.071C369.106,291.107,368.442,296.174,364.352,300.281z" fill="#FFFFFF"/>
	</g>
</g>
<g>
	<g>
		<path d="M160.075,240.012c-8.822,0-15.989,7.17-15.989,15.988c0,8.822,7.167,15.996,15.989,15.996    c8.814,0,15.988-7.174,15.988-15.996C176.063,247.182,168.888,240.012,160.075,240.012z M160.075,264.002    c-4.411,0-7.994-3.591-7.994-8.002c0-4.407,3.583-7.994,7.994-7.994c4.403,0,7.994,3.587,7.994,7.994    C168.069,260.411,164.478,264.002,160.075,264.002z" fill="#FFFFFF"/>
	</g>
</g>
<g>
	<g>
		<path d="M232.023,327.948c-8.969,0-15.988,5.27-15.988,11.991c0,6.73,7.018,12,15.988,12c8.963,0,15.989-5.269,15.989-12    C248.012,333.219,240.986,327.948,232.023,327.948z M232.023,343.945c-4.879,0-7.994-2.373-7.994-4.006    c0-1.592,3.185-3.996,7.994-3.996c4.802,0,7.995,2.405,7.995,3.996C240.018,341.572,236.903,343.945,232.023,343.945z" fill="#FFFFFF"/>
	</g>
</g>
<g>
</g>
<g>
</g>
<g>
</g>
<g>
</g>
<g>
</g>
<g>
</g>
<g>
</g>
<g>
</g>
<g>
</g>
<g>
</g>
<g>
</g>
<g>
</g>
<g>
</g>
<g>
</g>
<g>
</g>
</svg>
