
<svg xmlns="http://www.w3.org/2000/svg" version="1.1" id="Capa_1" x="0px" y="0px" viewBox="0 0 427.571 427.571" style="enable-background:new 0 0 427.571 427.571;" xml:space="preserve" width="512px" height="512px">
<g>
	<path d="M371.742,183.04c-0.371-0.429-0.828-0.774-1.342-1.013l-88.736-41.082c-0.519-0.373-1.116-0.626-1.753-0.719l-66.72-9.751   c-0.393-0.057-0.793-0.056-1.186,0.004l-66.237,10.171c-0.375,0.058-0.737,0.169-1.077,0.328l-0.001-0.002l-88.378,41.051   c-0.514,0.239-0.972,0.584-1.342,1.014L7.009,238.575c-1.186,1.372-1.299,3.371-0.277,4.869c0.056,0.082,0.124,0.151,0.186,0.228   l-0.011,0.009l24.599,30.906c0.001,0.001,0.001,0.001,0.002,0.002l0.012,0.015c0.155,0.195,1.452,1.33,1.452,1.33l177.8,150.689   c0.746,0.633,1.666,0.949,2.586,0.949s1.84-0.316,2.586-0.948l178.177-151.008c0,0,0.921-0.816,1.076-1.011l0.012-0.015   c0.001-0.001,0.001-0.001,0.002-0.002l24.599-30.906l-0.011-0.008c0.061-0.077,0.129-0.146,0.186-0.228   c1.021-1.498,0.908-3.497-0.277-4.869L371.742,183.04z M366.25,188.92l37.561,43.491L348.762,213l-36.763-45.591l-7.796-7.284   L366.25,188.92z M334.207,207.868l-46.723-16.475l19.149-17.148L334.207,207.868z M148.158,148.376l64.47-9.9l64.987,9.499   l23.753,20.247l-22.658,20.29l-64.47,9.9l-64.985-9.499l-23.756-20.246L148.158,148.376z M205.062,304.547l-85.159-18.252   l54.149-25.542L205.062,304.547z M154.122,197.709l52.991,7.746l-30.878,42.293L154.122,197.709z M207.065,313.158l-30.706,38.124   L121.4,294.797L207.065,313.158z M180.306,255.74l33.051-45.269l33.051,45.269l-33.051,46.677L180.306,255.74z M221.651,304.547   l31.01-43.794l54.149,25.542L221.651,304.547z M305.312,294.797l-54.958,56.485l-30.707-38.124L305.312,294.797z M250.477,247.747   l-30.728-42.088l52.92-8.127L250.477,247.747z M139.655,191.242l-47.148,16.625l27.421-33.438L139.655,191.242z M60.463,188.92   l63.219-29.365c0,0-7.211,6.503-7.341,6.661l-0.015-0.012L77.952,213l-55.049,19.411L60.463,188.92z M16.664,243.094l51.5-18.16   l-33.47,40.813L16.664,243.094z M79.125,224.185l23.174,58.336l-60.397-12.945L79.125,224.185z M49.39,279.363l55.24,11.84   l1.361,36.131L49.39,279.363z M85.589,218.79l59.786-21.082l24.768,56.043l-59.513,28.072L85.589,218.79z M114.26,334.342   l-1.387-36.837l60.529,62.21l25.855,46.664L114.26,334.342z M213.356,415.318l-31.912-57.596l31.912-39.622l31.913,39.622   L213.356,415.318z M312.452,334.342l-84.996,72.036l25.856-46.664l60.528-62.21L312.452,334.342z M256.57,253.751l24.768-56.043   l59.787,21.082l-25.042,63.034L256.57,253.751z M320.722,327.334l1.361-36.131l55.241-11.84L320.722,327.334z M324.415,282.521   l23.174-58.335l37.223,45.39L324.415,282.521z M392.019,265.747l-33.47-40.814l51.501,18.16L392.019,265.747z" fill="#FFFFFF"/>
	<path d="M214.259,95.458c2.209,0,4-1.791,4-4V4c0-2.209-1.791-4-4-4s-4,1.791-4,4v87.458   C210.259,93.667,212.05,95.458,214.259,95.458z" fill="#FFFFFF"/>
	<path d="M336.375,133.993c0.845,0,1.697-0.267,2.421-0.818l81.163-61.84c1.758-1.339,2.097-3.849,0.758-5.606   c-1.339-1.757-3.849-2.097-5.605-0.757l-81.163,61.84c-1.758,1.339-2.097,3.849-0.758,5.606   C333.977,133.451,335.169,133.993,336.375,133.993z" fill="#FFFFFF"/>
	<path d="M8.559,71.335l81.163,61.84c0.724,0.552,1.576,0.818,2.421,0.818c1.206,0,2.397-0.543,3.185-1.576   c1.339-1.757,1-4.267-0.758-5.606l-81.163-61.84c-1.757-1.34-4.268-0.999-5.605,0.757C6.462,67.486,6.801,69.996,8.559,71.335z" fill="#FFFFFF"/>
</g>
<g>
</g>
<g>
</g>
<g>
</g>
<g>
</g>
<g>
</g>
<g>
</g>
<g>
</g>
<g>
</g>
<g>
</g>
<g>
</g>
<g>
</g>
<g>
</g>
<g>
</g>
<g>
</g>
<g>
</g>
</svg>
